# xmcd CD database file
#
# Track frame offsets:
#	150
#	15570
#	36097
#	53797
#	70507
#	94080
#	113942
#	135165
#	152595
#	168820
#	186075
#	204282
#
# Disc length: 2976 seconds
#
# Revision: 0
# Processed by: cddbd v1.4PL0 Copyright (c) Steve Scherf et al.
# Submitted via: CDex 1.40Release
#
DISCID=8a0b9e0c
DTITLE=William Howse and Jack Pearson - -
DYEAR=1999
DGENRE=Blues
TTITLE0=I Can't Stop Tumblin'
TTITLE1=Blackbird
TTITLE2=I Feel All Right
TTITLE3=Minkslide Blues
TTITLE4=Mr Engineer
TTITLE5=My Dog Don't Bark
TTITLE6=Every Time It Rains
TTITLE7=Feel Like A Stranger Here
TTITLE8=Turn To Blue
TTITLE9=JB Blues
TTITLE10=Waiting On Your Love
TTITLE11=It Won't Change A Thing
EXTD=YEAR: 1999 ID3G: 0
EXTT0=
EXTT1=
EXTT2=
EXTT3=
EXTT4=
EXTT5=
EXTT6=
EXTT7=
EXTT8=
EXTT9=
EXTT10=
EXTT11=
PLAYORDER=
